<?xml version="1.0" encoding="utf-8"?>
<!-- Generator: Adobe Illustrator 19.0.0, SVG Export Plug-In . SVG Version: 6.00 Build 0)  -->
<svg version="1.1" id="Main" xmlns="http://www.w3.org/2000/svg" xmlns:xlink="http://www.w3.org/1999/xlink" x="0px" y="0px"
	 viewBox="0 0 612 575" style="enable-background:new 0 0 612 575;" xml:space="preserve">
<style type="text/css">
	.st0{fill:#333333;}
	.st1{fill:#FFFFFF;}
	.st2{fill:#F6F6F6;}
</style>
<g id="XMLID_295_">
	<polygon id="XMLID_41_" class="st0" points="111.8,437.3 71.7,138.9 299.2,47.3 526.9,138.9 484.9,437.3 299.3,543.6 	"/>
	<path id="XMLID_38_" class="st1" d="M299.2,54.9l220,88.5l-40.7,289.5L299.3,535.6l-181-102.7L79.4,143.3L299.2,54.9 M299.2,39.8
		l-5.2,2.1L74.1,130.4L64,134.4l1.4,10.8l38.9,289.6l0.9,6.9l6,3.4l181,102.7l6.9,3.9l6.9-4L485.4,445l5.9-3.4l1-6.8l40.7-289.5
		l1.5-10.8l-10.2-4.1l-220-88.5L299.2,39.8L299.2,39.8z"/>
</g>
<g id="XMLID_364_">
	<polygon id="XMLID_37_" class="st1" points="453.8,416.3 299.3,504.8 143.1,416.3 108.6,160.4 299.3,83.7 490,160.4 	"/>
</g>
<g id="XMLID_305_">
	<path id="XMLID_36_" class="st0" d="M299.2,489c-0.1,0-0.2,0-0.2-0.1l-143-81.1c-0.1-0.1-0.2-0.2-0.2-0.4l-32.2-237.9
		c0-0.2,0.1-0.4,0.3-0.5l175.2-70.5c0.1,0,0.1,0,0.2,0s0.1,0,0.2,0L474.6,169c0.2,0.1,0.3,0.3,0.3,0.5l-33.7,237.9
		c0,0.2-0.1,0.3-0.2,0.4l-141.5,81.1C299.4,488.9,299.3,489,299.2,489z"/>
	<path id="XMLID_24_" class="st1" d="M299.3,99l175.1,70.5l-33.7,237.9l-141.5,81.1l-143-81.1l-32.2-237.9L299.3,99 M299.3,98
		c-0.1,0-0.3,0-0.4,0.1l-175.2,70.5c-0.4,0.2-0.7,0.6-0.6,1.1l32.2,237.9c0,0.3,0.2,0.6,0.5,0.7l143,81.1c0.2,0.1,0.3,0.1,0.5,0.1
		c0.2,0,0.3,0,0.5-0.1l141.5-81.1c0.3-0.2,0.4-0.4,0.5-0.7l33.7-237.9c0.1-0.5-0.2-0.9-0.6-1.1L299.6,98.1
		C299.5,98,299.4,98,299.3,98L299.3,98z"/>
</g>
<g id="XMLID_4_">
	<polygon id="XMLID_10_" class="st0" points="535,356.1 299.3,356.1 63.5,356.1 46.6,301.9 63.5,247.6 299.3,247.6 535,247.6 
		551.9,301.9 	"/>
	<path id="XMLID_3_" class="st1" d="M535,247.6l16.9,54.3L535,356.1H299.3H63.5l-16.9-54.3l16.9-54.3h235.8H535 M540.2,240.6H535
		H299.3H63.5h-5.2l-1.5,4.9l-16.9,54.3l-0.6,2.1l0.6,2.1l16.9,54.3l1.5,4.9h5.2h235.8H535h5.2l1.5-4.9l16.9-54.3l0.6-2.1l-0.6-2.1
		l-16.9-54.3L540.2,240.6L540.2,240.6z"/>
</g>
<g id="XMLID_322_">
	<path id="XMLID_58_" class="st1" d="M117.7,295.6c0,2.4-1.8,4.2-4.1,4.6v0.1c2.3,0.4,4.1,2.2,4.1,4.6v12c0,6.1-3.3,9.4-9.4,9.4
		H92.7c-0.6,0-1-0.4-1-1v-49.9c0-0.7,0.4-1,1-1h15.6c6.1,0,9.4,3.2,9.4,9.4V295.6z M109,285.5c0-1.7-0.8-2.6-2.6-2.6h-5.9V296h5.9
		c1.7,0,2.6-0.9,2.6-2.5V285.5z M109,307.2c0-1.7-0.8-2.6-2.6-2.6h-5.9v13.1h5.9c1.7,0,2.6-0.8,2.6-2.6V307.2z"/>
	<path id="XMLID_62_" class="st1" d="M148.6,290.7c0,0.7-0.4,1-1,1h-6.5c-0.7,0-1-0.4-1-1v-5.2c0-1.7-0.9-2.6-2.6-2.6h-3.4
		c-1.8,0-2.6,0.9-2.6,2.6v29.6c0,1.8,0.9,2.6,2.6,2.6h3.4c1.7,0,2.6-0.8,2.6-2.6v-5.2c0-0.7,0.3-1,1-1h6.5c0.7,0,1,0.4,1,1v7
		c0,6.1-3.3,9.4-9.4,9.4H132c-6.1,0-9.4-3.2-9.4-9.4v-33.3c0-6.1,3.3-9.4,9.4-9.4h7.3c6,0,9.4,3.2,9.4,9.4V290.7z"/>
	<path id="XMLID_64_" class="st1" d="M180.2,274.3c0.6,0,1,0.4,1,1v49.9c0,0.6-0.4,1-1,1h-6.4c-0.6,0-1-0.3-1.2-0.8l-9.9-27.8h-0.3
		v27.6c0,0.6-0.3,1-1,1h-6.8c-0.6,0-1-0.4-1-1v-49.9c0-0.6,0.4-1,1-1h6.4c0.6,0,1,0.3,1.2,0.8l9.9,27.6h0.4v-27.4c0-0.6,0.3-1,1-1
		H180.2z"/>
	<path id="XMLID_66_" class="st1" d="M226.7,281.9c0,0.6-0.3,1.1-1,1.1h-16.3v13h12.4c0.6,0,1,0.4,1,1.1v6.4c0,0.7-0.4,1.1-1,1.1
		h-12.4v13.1h16.3c0.8,0,1,0.3,1,1v6.5c0,0.6-0.3,1-1,1h-23.9c-0.6,0-1-0.4-1-1v-49.9c0-0.6,0.4-1,1-1h23.9c0.8,0,1,0.4,1,1V281.9z"
		/>
	<path id="XMLID_68_" class="st1" d="M258.3,274.3c0.6,0,1,0.4,1,1v49.9c0,0.6-0.4,1-1,1h-6.4c-0.6,0-1-0.3-1.2-0.8l-9.9-27.8h-0.3
		v27.6c0,0.6-0.3,1-1,1h-6.8c-0.6,0-1-0.4-1-1v-49.9c0-0.6,0.4-1,1-1h6.4c0.6,0,1,0.3,1.2,0.8l9.9,27.6h0.4v-27.4c0-0.6,0.3-1,1-1
		H258.3z"/>
	<path id="XMLID_70_" class="st1" d="M264.2,283.7c0-6.1,3.3-9.4,9.4-9.4h8.6c6,0,9.4,3.2,9.4,9.4v6.8c0,0.6-0.4,1-1,1H284
		c-0.7,0-1-0.4-1-1v-4.9c0-1.7-0.9-2.6-2.6-2.6h-4.7c-1.8,0-2.6,0.9-2.6,2.6v29.6c0,1.8,0.9,2.6,2.6,2.6h4.7c1.7,0,2.6-0.8,2.6-2.6
		v-8.7h-3.4c-0.7,0-1-0.4-1-1v-6.5c0-0.7,0.3-1,1-1h10.9c0.6,0,1,0.3,1,1V317c0,6.1-3.3,9.4-9.4,9.4h-8.6c-6.1,0-9.4-3.2-9.4-9.4
		V283.7z"/>
	<path id="XMLID_72_" class="st1" d="M304.2,274.3c0.6,0,1,0.4,1,1v49.9c0,0.6-0.4,1-1,1h-6.8c-0.7,0-1-0.4-1-1v-49.9
		c0-0.6,0.3-1,1-1H304.2z"/>
	<path id="XMLID_74_" class="st1" d="M336.8,274.3c0.6,0,1,0.4,1,1v49.9c0,0.6-0.4,1-1,1h-6.4c-0.6,0-1-0.3-1.2-0.8l-9.9-27.8h-0.3
		v27.6c0,0.6-0.3,1-1,1h-6.8c-0.7,0-1-0.4-1-1v-49.9c0-0.6,0.4-1,1-1h6.4c0.6,0,1,0.3,1.2,0.8l9.9,27.6h0.4v-27.4c0-0.6,0.3-1,1-1
		H336.8z"/>
	<path id="XMLID_76_" class="st1" d="M368.7,281.9c0,0.6-0.3,1.1-1,1.1h-16.3v13h12.4c0.7,0,1,0.4,1,1.1v6.4c0,0.7-0.4,1.1-1,1.1
		h-12.4v13.1h16.3c0.8,0,1,0.3,1,1v6.5c0,0.6-0.3,1-1,1h-23.9c-0.6,0-1-0.4-1-1v-49.9c0-0.6,0.4-1,1-1h23.9c0.8,0,1,0.4,1,1V281.9z"
		/>
	<path id="XMLID_78_" class="st1" d="M399.5,281.9c0,0.6-0.3,1.1-1,1.1h-16.3v13h12.4c0.7,0,1,0.4,1,1.1v6.4c0,0.7-0.4,1.1-1,1.1
		h-12.4v13.1h16.3c0.8,0,1,0.3,1,1v6.5c0,0.6-0.3,1-1,1h-23.9c-0.6,0-1-0.4-1-1v-49.9c0-0.6,0.4-1,1-1h23.9c0.8,0,1,0.4,1,1V281.9z"
		/>
	<path id="XMLID_80_" class="st1" d="M430.4,299.5c0,4.4-1.6,7.2-4.7,8.6l4.5,17c0.2,0.8-0.2,1.2-0.9,1.2h-6.8c-0.7,0-1-0.3-1.1-0.9
		l-4.4-16.5h-4.5v16.4c0,0.6-0.4,1-1,1h-6.8c-0.6,0-1-0.4-1-1v-49.9c0-0.6,0.4-1,1-1H421c6.1,0,9.4,3.2,9.4,9.4V299.5z M419,300.3
		c1.7,0,2.6-0.9,2.6-2.6v-12.2c0-1.7-0.9-2.6-2.6-2.6h-6.4v17.4H419z"/>
	<path id="XMLID_83_" class="st1" d="M443.1,274.3c0.6,0,1,0.4,1,1v49.9c0,0.6-0.4,1-1,1h-6.8c-0.7,0-1-0.4-1-1v-49.9
		c0-0.6,0.3-1,1-1H443.1z"/>
	<path id="XMLID_85_" class="st1" d="M475.7,274.3c0.7,0,1,0.4,1,1v49.9c0,0.6-0.4,1-1,1h-6.4c-0.6,0-1-0.3-1.2-0.8l-9.9-27.8h-0.3
		v27.6c0,0.6-0.3,1-1,1H450c-0.7,0-1-0.4-1-1v-49.9c0-0.6,0.4-1,1-1h6.4c0.6,0,1,0.3,1.2,0.8l9.9,27.6h0.4v-27.4c0-0.6,0.3-1,1-1
		H475.7z"/>
	<path id="XMLID_87_" class="st1" d="M481.6,283.7c0-6.1,3.2-9.4,9.4-9.4h8.6c6,0,9.4,3.2,9.4,9.4v6.8c0,0.6-0.4,1-1,1h-6.5
		c-0.7,0-1-0.4-1-1v-4.9c0-1.7-0.9-2.6-2.6-2.6h-4.7c-1.8,0-2.6,0.9-2.6,2.6v29.6c0,1.8,0.9,2.6,2.6,2.6h4.7c1.7,0,2.6-0.8,2.6-2.6
		v-8.7H497c-0.7,0-1-0.4-1-1v-6.5c0-0.7,0.3-1,1-1h10.9c0.7,0,1,0.3,1,1V317c0,6.1-3.3,9.4-9.4,9.4H491c-6.1,0-9.4-3.2-9.4-9.4
		V283.7z"/>
</g>
<g id="XMLID_323_">
	<path id="XMLID_22_" class="st1" d="M206.5,413.8c-0.3,0.7-0.6,1.3-1.1,1.8s-1,0.9-1.6,1.2c-0.6,0.3-1.2,0.4-1.9,0.4
		c-0.6,0-1.2-0.1-1.7-0.3c-0.5-0.2-1-0.4-1.5-0.7s-0.8-0.7-1.1-1.1c-0.3-0.4-0.5-0.9-0.7-1.4l2.7-1.3c0,0.6,0.2,1.1,0.6,1.5
		c0.4,0.4,0.9,0.6,1.5,0.6c0.3,0,0.6-0.1,0.9-0.2c0.3-0.2,0.5-0.4,0.8-0.6s0.4-0.6,0.5-0.9c0.1-0.3,0.2-0.7,0.2-1.1v-13.6h2.7v13.6
		C206.9,412.4,206.8,413.1,206.5,413.8z"/>
	<path id="XMLID_42_" class="st1" d="M228.2,410.9c-0.5,1.2-1.2,2.3-2.1,3.2s-1.9,1.6-3.1,2.2c-1.2,0.5-2.4,0.8-3.8,0.8
		s-2.6-0.3-3.8-0.8c-1.2-0.5-2.2-1.3-3.1-2.2s-1.6-2-2.1-3.2c-0.5-1.2-0.8-2.5-0.8-3.9c0-1.3,0.3-2.5,0.8-3.6c0.5-1.1,1.2-2.1,2.1-3
		c0.9-0.8,1.9-1.5,3.1-2c1.2-0.5,2.4-0.7,3.8-0.7s2.6,0.2,3.8,0.7c1.2,0.5,2.2,1.2,3.1,2c0.9,0.8,1.6,1.8,2.1,3
		c0.5,1.1,0.8,2.3,0.8,3.6C229,408.4,228.7,409.7,228.2,410.9z M225.7,404.5c-0.4-0.8-0.9-1.5-1.5-2.1c-0.6-0.6-1.4-1.1-2.2-1.5
		c-0.8-0.4-1.7-0.5-2.7-0.5c-1,0-1.9,0.2-2.8,0.5c-0.9,0.4-1.6,0.8-2.3,1.4c-0.6,0.6-1.2,1.3-1.5,2.1s-0.6,1.7-0.6,2.6
		c0,1,0.2,2,0.6,2.9s0.9,1.7,1.5,2.4c0.6,0.7,1.4,1.2,2.3,1.6c0.9,0.4,1.8,0.6,2.8,0.6c0.9,0,1.8-0.2,2.7-0.6
		c0.8-0.4,1.6-0.9,2.2-1.6c0.6-0.7,1.1-1.5,1.5-2.3s0.6-1.8,0.6-2.9C226.3,406.2,226.1,405.3,225.7,404.5z"/>
	<path id="XMLID_54_" class="st1" d="M231.7,416.8v-18.7h2.7v18.7H231.7z"/>
	<path id="XMLID_56_" class="st1" d="M252,416.8l-11.6-14.5v14.5h-2.6v-18.7h2.7l11.6,14.4v-14.4h2.6v18.7H252z"/>
</g>
<g id="XMLID_324_">
	<path id="XMLID_11_" class="st1" d="M354.7,416.8l-11.6-14.5v14.5h-2.6v-18.7h2.7l11.6,14.4v-14.4h2.6v18.7H354.7z"/>
	<path id="XMLID_13_" class="st1" d="M378.2,410.9c-0.5,1.2-1.2,2.3-2.1,3.2s-1.9,1.6-3.1,2.2c-1.2,0.5-2.4,0.8-3.8,0.8
		s-2.6-0.3-3.8-0.8c-1.2-0.5-2.2-1.3-3.1-2.2s-1.6-2-2.1-3.2c-0.5-1.2-0.8-2.5-0.8-3.9c0-1.3,0.3-2.5,0.8-3.6c0.5-1.1,1.2-2.1,2.1-3
		c0.9-0.8,1.9-1.5,3.1-2c1.2-0.5,2.4-0.7,3.8-0.7s2.6,0.2,3.8,0.7c1.2,0.5,2.2,1.2,3.1,2c0.9,0.8,1.6,1.8,2.1,3
		c0.5,1.1,0.8,2.3,0.8,3.6C379,408.4,378.7,409.7,378.2,410.9z M375.8,404.5c-0.4-0.8-0.9-1.5-1.5-2.1c-0.6-0.6-1.4-1.1-2.2-1.5
		c-0.8-0.4-1.7-0.5-2.7-0.5c-1,0-1.9,0.2-2.8,0.5c-0.9,0.4-1.6,0.8-2.3,1.4c-0.6,0.6-1.2,1.3-1.5,2.1c-0.4,0.8-0.6,1.7-0.6,2.6
		c0,1,0.2,2,0.6,2.9c0.4,0.9,0.9,1.7,1.5,2.4c0.6,0.7,1.4,1.2,2.3,1.6s1.8,0.6,2.8,0.6c0.9,0,1.8-0.2,2.7-0.6
		c0.8-0.4,1.6-0.9,2.2-1.6c0.6-0.7,1.1-1.5,1.5-2.3s0.6-1.8,0.6-2.9C376.3,406.2,376.1,405.3,375.8,404.5z"/>
	<path id="XMLID_18_" class="st1" d="M399.6,416.7H397l-4.1-13.5l-4.1,13.5H386l-6.2-18.6h2.8l4.7,14.1l4.1-13.5h2.8l4.1,13.5
		l4.7-14.1h2.8L399.6,416.7z"/>
</g>
<circle id="XMLID_336_" class="st1" cx="73.9" cy="300.7" r="8"/>
<circle id="XMLID_335_" class="st1" cx="525.3" cy="300.7" r="8"/>
<path id="XMLID_5_" class="st1" d="M314.1,434.6l-2.5-10.7c1.5-1.1,2.8-2.5,3.9-3.9l11.1,1.7l2-5.4l-9.4-5.8
	c0.2-1.8,0.2-3.7-0.1-5.5l9.1-6.7l-2.4-5.2l-10.7,2.5c-1.1-1.5-2.5-2.8-3.9-3.9l1.7-11.1l-5.4-2l-5.8,9.4c-1.8-0.2-3.7-0.2-5.5,0.1
	l-6.7-9.1l-5.2,2.4l2.5,10.7c-1.5,1.1-2.8,2.5-3.9,3.9l-11.1-1.7l-2,5.4l9.4,5.8c-0.2,1.8-0.2,3.7,0.1,5.5l-9.1,6.7l2.4,5.2
	l10.7-2.5c1.1,1.5,2.5,2.8,3.9,3.9l-1.7,11.1l5.4,2l5.8-9.4c1.8,0.2,3.7,0.2,5.5-0.1l6.7,9.1L314.1,434.6z M302.9,415.9
	c-4.3,2-9.5,0.1-11.5-4.2c-2-4.3-0.1-9.5,4.2-11.5c4.3-2,9.5-0.1,11.5,4.2C309.1,408.8,307.2,413.9,302.9,415.9z"/>
<g id="XMLID_1_">
	<path id="XMLID_315_" class="st2" d="M279.4,132.9c-0.3,2.6-0.3,5.3-0.4,8c-0.1,8.6-0.2,17.2-0.4,25.8c-1.2,0-2.4,0-3.6,0.1
		c-0.2,6.4,0.1,12.8,0,19.2c1.1,0,2.2,0,3.4,0c0,3.3-0.1,6.6-0.1,9.9c-2.5,1.2-4.7,3.1-7.3,4.2c-0.8-1.2-1.2-3.4-3.1-3.3
		c-1.8-0.1-1.3,2.3-1.6,3.4l-0.8-0.1c0-0.3,0-1-0.1-1.4c-0.7,0-1.4,0-2,0c-0.4-0.9-0.3-2.1-1.3-2.6c-1.6-0.5-3,0.6-4,1.7
		c-0.7,0-1.5,0-2.2,0.1l-0.1-1.7c-1,0.4-2.7,0-3,1.3c-0.2,1.2-0.1,2.4-0.1,3.6c-0.5,0-1.5,0-1.9,0c0-2.6,0-5.1,0-7.7
		c-0.4,0-1.1,0-1.5,0c0,1,0,2,0,3c-1.8,0-3.6,0-5.5,0c0,1.5,0,3,0,4.5c-0.8,0-1.7,0-2.5,0c0-1.2,0-2.4,0-3.5c-1.8,0-3.6-0.1-5.4,0.1
		c-0.7,1.5-0.2,3.3-0.3,4.9c-0.5,0-1.4,0-1.9,0c-0.2,1-0.5,1.9-0.6,2.9c-0.3-1.7-1.7-2-3.1-2.1c0.4-2.9,0.8-5.8,1.2-8.6
		c-0.9,0-1.9,0-2.8-0.1c-1.2-1.1-2.7-1.7-4.3-1.9c0-0.7,0-1.4,0-2.1h-5.3c0,0.7-0.1,1.4-0.1,2.2c-1.6,0.2-3.2,0.6-4.3,1.8
		c-1,0-2,0-3,0.1c0.3,2.5,0.7,5.1,1,7.6h-4.8c0.1-8.2,0.1-16.5,0.2-24.7c0.7-0.8,1.3-1.6,1.9-2.5c-0.5-0.1-1.4-0.2-1.9-0.3
		c0-0.7,0-1.5,0.1-2.2c0.5-0.9,1.3-1.9,1-3c-0.5-0.4-1-0.8-1.6-1.1c-0.2-0.9-0.5-1.7-0.7-2.6c0.3-0.3,0.9-0.8,1.1-1
		c0-1.4,0.1-2.7,0-4.1c-0.4-1.1-1-2.1-1.5-3.1c-0.9,1.3-2.4,1.1-3.7,1.2c2.2,1.8,2.1,4.7,2.5,7.3c-0.3,1.5-1.6,2.6-2.1,4.1
		c-0.2,1.1,0.9,1.6,1.6,2.2c0,0.7,0,1.5,0,2.2c-0.5,0-1.6,0.1-2.1,0.1c0.5,1.2,1.1,2.4,2,3.3c0,7.6,0,15.1,0,22.7
		c-1.6,0-3.1,0-4.7,0c-0.1,0.6-0.1,1.2-0.2,1.8c-1.4,0-2.8,0-4.2,0c0,1.8,0,3.5-0.2,5.3c-0.6-1-0.8-2.1-0.9-3.1c-1.3,0-2.5,0-3.8,0
		c0-1.1,0-2.2,0-3.3c-1.4,0.3-2.8,0.3-4,1.1c-1.3,0.6-0.9,2.3-1.1,3.4c-1.5,0.3-4.1-0.8-4.1,1.5c-1.2,0-2.5,0-3.7,0c0-1.5,0-3,0-4.6
		c-0.6,0-1.9,0-2.5,0c-0.2,1.1-0.1,2.3-1,3c-0.1-0.5-0.3-1.6-0.5-2.1h-1.6c-0.1-1-0.1-1.9-0.2-2.9c-1-0.4-2-0.9-3-1.3
		c-0.1,0.9-0.1,1.8-0.2,2.7c-15.9,2.2-24.5,21-28.3,30.3c66,0.2,134.1-1.1,189.5-1.1c0.9,0,79.8-0.3,80.7-0.1h48.3
		c-5.4-15.7-16-22.4-20.5-28.3c0-1.6,0-1.6,0-3.2c-0.2-0.4-0.1-3.5-0.2-3.9c-2.2,0.5-5.2-0.2-7.4,0.3c0,1.7,0.1,7.1,0.1,8.8
		l-2.7,0.3c-0.7,0.1-0.9,0.1-1.4,0.4c0,0,0,0,0,0c-0.5,1.4-0.7,2.9-1.2,4.3c-0.4-2.6-0.2-5.3-0.2-7.9c-1.9,0-3.7,0-5.6,0
		c0,0.9,0,1.8,0,2.6c-1.5,0.2-3.8-0.6-4.5,1.3c-0.2,0-0.7-0.1-0.9-0.1v-3c-1.9,0.1-4.3-0.2-5.9-0.1c0.1,2.4,0,8.9,0,12.5l-7.2-0.1
		c-6.2,0-3.4,0.3-3.5,0.3c-1.1-0.2,0-13.3-0.8-13.5c-0.1-0.2-0.2,0-0.3,0c-0.3,0-0.5-0.1-0.8-0.1l-0.4-0.1c0,0-0.1,0-0.1,0
		c0.1,0,0.3,0,0.2,0c-0.5,0.1-0.8-0.1-1.4-0.2c0,0,0,0-0.1,0c-0.1,0-0.2,0-0.3,0c-0.5,0-0.9-0.1-1.3-0.2c-0.1,0-0.3,0-0.5,0
		c0,0-0.1,0-0.1,0c0,1.5,0,3.1,0,4.6c0.1,0.9-0.3,1.5-1.3,1.7c0-0.6-0.1-1.7-0.1-2.3c-0.3,0-0.9,0-1.2,0c0,0.3,0,1,0,1.4
		c-1.6-0.6-3.3-1.2-5-1.7c0-1.4,0-2.8,0-4.2c-0.3,0-0.7,0-1,0c0,0,0,0,0,0c-0.3,0-0.6,0-0.9,0c-0.3,0-0.6,0-0.9,0
		c-0.3,0-0.6,0.1-1,0.1c-0.6,0.1-0.6,11.9-1.3,11.8c-11.7-2.4-4.5-0.9-14.8-1.8c0-0.6,0-3.5,0-4c-0.9,0-1.8,0-2.7,0
		c0,1.4,0,2.8-0.6,4c-0.2-1.1-0.3-2.3-0.3-3.4h-2c-0.2,0.9-0.3,1.9-0.5,2.8c-0.1-0.5-0.3-1.6-0.4-2.1c-0.5,0-1.4,0-1.9-0.1
		c-0.8-7.1-1.4-14.2-2.3-21.3c0.3-0.3,1-0.8,1.3-1.1c-0.5-1.1-1.3-1.9-2.6-1.4c0.3,2.5,0.3,5.1-0.1,7.6c-0.5-2.9-1-5.8-1.2-8.8
		c0.3-0.6,0.6-1.3,0.9-1.9c-0.4-0.8-1.3-1-2.1-0.8c-1.1,0.6,0,1.8,0.2,2.7c-0.2,5.2-0.5,10.3-0.7,15.5c-0.7-0.1-1.3-0.2-2-0.2
		c-0.7-5.7-1.3-11.4-1.6-17.1c0.5-0.7,1.2-1.5,0.8-2.4c-0.8-0.5-1.6-0.4-2.4,0c0.1,0.9,0.4,1.7,0.7,2.4c-0.5,3.7-0.9,7.4-1.3,11.1
		c-0.5-2.8-0.7-5.6-1-8.5c0.5-0.8,1.6-1.6,0.8-2.6c-0.7-0.6-1.5-0.6-2.4-0.3c-0.7,1.5,1,2.7,0.6,4.2c-0.7,7.6-1.2,15.1-1.5,22.7
		c-5.4-1.5-10.3-4.6-14.2-8.5c-1.6-1.3-1.8-4.4-4.2-4.5c0.6-0.6,1.3-1.1,1.9-1.6c-0.2-0.3-0.7-1-0.9-1.4c-0.3-0.7-0.6-1.4-0.9-2.1
		c0.7-0.3,1.5-0.7,2.2-1c-0.3-0.3-1-0.8-1.4-1.1c0.7-0.5,1.3-1,2-1.4c-0.7-0.3-1.5-0.7-2.2-1c0.1-0.2,0.2-0.7,0.3-0.9
		c-1.1-1.5,0.2-3.2,0.4-4.8c-1.1,1-2.1,2.1-3,3.4c-0.2-0.1-0.7-0.3-0.9-0.4c0.2,0.4,0.6,1.1,0.8,1.4l-1.1,0.1
		c0.2,0.4,0.3,0.8,0.5,1.1c1.1,0.5,2.2,1,3.2,1.5c-0.2,0.4-0.4,0.8-0.6,1.2c-0.9-0.8-2-1.8-3.2-0.9c-0.3-1.4-0.9-3.2-2.7-2.6
		c0.4-2,2-2.9,3.8-3.5c-0.5-0.2-1.5-0.5-2.1-0.7c0.3-0.8,0.5-1.6,0.8-2.4c-0.7-0.5-1.4-1.1-2-1.6c-0.2,0.1-0.5,0.3-0.7,0.4
		c-0.8,0-1.6,0.1-2.4,0.2c0.9,1,1.9,2.1,2.1,3.5c-1.1,0-2.1-0.1-3.2-0.2c1.1,0.6,2.3,1.1,3.4,1.6c-0.7,1.1-1.2,2.6-2.6,3.1
		c0.1,0.2,0.2,0.7,0.2,0.9c-0.1,0-0.2-0.1-0.3-0.1c-0.5-2-3.1-1.6-4.6-2.3c0.5,1.3,1,2.5,1.3,3.8c-0.8-0.2-1.7-0.3-2.5-0.5
		c0-0.8,0.1-1.6,0.1-2.4c-0.5-1-2-1.4-1.9-2.7c-0.2-2.6-0.6-5.2-1.7-7.6c-0.4,0.4-1.3,1.1-1.7,1.5c-0.3-1.8-0.6-3.5-1-5.3
		c0.8-1.6-1-1.1-2-1.2c0.1,0.3,0.4,1,0.5,1.3c-0.5,1.7-0.8,3.4-1.1,5.1c-0.4-0.4-0.9-0.7-1.3-1.1c-0.7,2.7-2,5.3-2,8.2
		c-1.5,0.9-1.9,2.7-1.9,4.3c-4.7,1.7-7.6,6.1-12.2,8c0-3-0.1-6-0.1-8.9c0.8,0,1.6,0,2.4,0c0-6.4,0-12.9,0-19.3c-0.9,0-1.8,0-2.7,0
		C280,155.5,280,144.2,279.4,132.9L279.4,132.9z"/>
	<path id="XMLID_17_" class="st2" d="M397.1,208.6c0-19.1-4.1-34.6-9.2-34.6c-5.1,0-9.2,15.5-9.2,34.6c0,3.4,0.1,6.7,0.4,9.9
		c5.6,1.4,11.8,1.5,17.4,2.2C396.9,216.9,397.1,212.8,397.1,208.6z"/>
</g>
<g id="XMLID_2_">
</g>
<g id="XMLID_89_">
</g>
<g id="XMLID_90_">
</g>
<g id="XMLID_91_">
</g>
<g id="XMLID_92_">
</g>
<g id="XMLID_93_">
</g>
</svg>
